<?xml version="1.0" standalone="no"?>
<!DOCTYPE svg PUBLIC "-//W3C//DTD SVG 1.1//EN" "http://www.w3.org/Graphics/SVG/1.1/DTD/svg11.dtd">
<svg version="1.1" width="1200" height="326" onload="init(evt)" viewBox="0 0 1200 326" xmlns="http://www.w3.org/2000/svg" xmlns:xlink="http://www.w3.org/1999/xlink">
<!-- Flame graph stack visualization. See https://github.com/brendangregg/FlameGraph for latest version, and http://www.brendangregg.com/flamegraphs.html for examples. -->
<!-- NOTES:  -->
<defs>
	<linearGradient id="background" y1="0" y2="1" x1="0" x2="0" >
		<stop stop-color="#eeeeee" offset="5%" />
		<stop stop-color="#eeeeb0" offset="95%" />
	</linearGradient>
</defs>
<style type="text/css">
	text { font-family:Verdana; font-size:12px; fill:rgb(0,0,0); }
	#search, #ignorecase { opacity:0.1; cursor:pointer; }
	#search:hover, #search.show, #ignorecase:hover, #ignorecase.show { opacity:1; }
	#subtitle { text-anchor:middle; font-color:rgb(160,160,160); }
	#title { text-anchor:middle; font-size:17px}
	#unzoom { cursor:pointer; }
	#frames > *:hover { stroke:black; stroke-width:0.5; cursor:pointer; }
	.hide { display:none; }
	.parent { opacity:0.5; }
</style>
<script type="text/ecmascript">
<![CDATA[
	"use strict";
	var details, searchbtn, unzoombtn, matchedtxt, svg, searching, currentSearchTerm, ignorecase, ignorecaseBtn;
	function init(evt) {
		details = document.getElementById("details").firstChild;
		searchbtn = document.getElementById("search");
		ignorecaseBtn = document.getElementById("ignorecase");
		unzoombtn = document.getElementById("unzoom");
		matchedtxt = document.getElementById("matched");
		svg = document.getElementsByTagName("svg")[0];
		searching = 0;
		currentSearchTerm = null;

		// use GET parameters to restore a flamegraphs state.
		var params = get_params();
		if (params.x && params.y)
			zoom(find_group(document.querySelector('[x="' + params.x + '"][y="' + params.y + '"]')));
                if (params.s) search(params.s);
	}

	// event listeners
	window.addEventListener("click", function(e) {
		var target = find_group(e.target);
		if (target) {
			if (target.nodeName == "a") {
				if (e.ctrlKey === false) return;
				e.preventDefault();
			}
			if (target.classList.contains("parent")) unzoom();
			zoom(target);
			if (!document.querySelector('.parent')) {
				clearzoom();
				return;
			}

			// set parameters for zoom state
			var el = target.querySelector("rect");
			if (el && el.attributes && el.attributes.y && el.attributes._orig_x) {
				var params = get_params()
				params.x = el.attributes._orig_x.value;
				params.y = el.attributes.y.value;
				history.replaceState(null, null, parse_params(params));
			}
		}
		else if (e.target.id == "unzoom") clearzoom();
		else if (e.target.id == "search") search_prompt();
		else if (e.target.id == "ignorecase") toggle_ignorecase();
	}, false)

	// mouse-over for info
	// show
	window.addEventListener("mouseover", function(e) {
		var target = find_group(e.target);
		if (target) details.nodeValue = "Function: " + g_to_text(target);
	}, false)

	// clear
	window.addEventListener("mouseout", function(e) {
		var target = find_group(e.target);
		if (target) details.nodeValue = ' ';
	}, false)

	// ctrl-F for search
	// ctrl-I to toggle case-sensitive search
	window.addEventListener("keydown",function (e) {
		if (e.keyCode === 114 || (e.ctrlKey && e.keyCode === 70)) {
			e.preventDefault();
			search_prompt();
		}
		else if (e.ctrlKey && e.keyCode === 73) {
			e.preventDefault();
			toggle_ignorecase();
		}
	}, false)

	// functions
	function get_params() {
		var params = {};
		var paramsarr = window.location.search.substr(1).split('&');
		for (var i = 0; i < paramsarr.length; ++i) {
			var tmp = paramsarr[i].split("=");
			if (!tmp[0] || !tmp[1]) continue;
			params[tmp[0]]  = decodeURIComponent(tmp[1]);
		}
		return params;
	}
	function parse_params(params) {
		var uri = "?";
		for (var key in params) {
			uri += key + '=' + encodeURIComponent(params[key]) + '&';
		}
		if (uri.slice(-1) == "&")
			uri = uri.substring(0, uri.length - 1);
		if (uri == '?')
			uri = window.location.href.split('?')[0];
		return uri;
	}
	function find_child(node, selector) {
		var children = node.querySelectorAll(selector);
		if (children.length) return children[0];
	}
	function find_group(node) {
		var parent = node.parentElement;
		if (!parent) return;
		if (parent.id == "frames") return node;
		return find_group(parent);
	}
	function orig_save(e, attr, val) {
		if (e.attributes["_orig_" + attr] != undefined) return;
		if (e.attributes[attr] == undefined) return;
		if (val == undefined) val = e.attributes[attr].value;
		e.setAttribute("_orig_" + attr, val);
	}
	function orig_load(e, attr) {
		if (e.attributes["_orig_"+attr] == undefined) return;
		e.attributes[attr].value = e.attributes["_orig_" + attr].value;
		e.removeAttribute("_orig_"+attr);
	}
	function g_to_text(e) {
		var text = find_child(e, "title").firstChild.nodeValue;
		return (text)
	}
	function g_to_func(e) {
		var func = g_to_text(e);
		// if there's any manipulation we want to do to the function
		// name before it's searched, do it here before returning.
		return (func);
	}
	function update_text(e) {
		var r = find_child(e, "rect");
		var t = find_child(e, "text");
		var w = parseFloat(r.attributes.width.value) -3;
		var txt = find_child(e, "title").textContent.replace(/\([^(]*\)$/,"");
		t.attributes.x.value = parseFloat(r.attributes.x.value) + 3;

		// Smaller than this size won't fit anything
		if (w < 2 * 12 * 0.59) {
			t.textContent = "";
			return;
		}

		t.textContent = txt;
		// Fit in full text width
		if (/^ *$/.test(txt) || t.getSubStringLength(0, txt.length) < w)
			return;

		for (var x = txt.length - 2; x > 0; x--) {
			if (t.getSubStringLength(0, x + 2) <= w) {
				t.textContent = txt.substring(0, x) + "..";
				return;
			}
		}
		t.textContent = "";
	}

	// zoom
	function zoom_reset(e) {
		if (e.attributes != undefined) {
			orig_load(e, "x");
			orig_load(e, "width");
		}
		if (e.childNodes == undefined) return;
		for (var i = 0, c = e.childNodes; i < c.length; i++) {
			zoom_reset(c[i]);
		}
	}
	function zoom_child(e, x, ratio) {
		if (e.attributes != undefined) {
			if (e.attributes.x != undefined) {
				orig_save(e, "x");
				e.attributes.x.value = (parseFloat(e.attributes.x.value) - x - 10) * ratio + 10;
				if (e.tagName == "text")
					e.attributes.x.value = find_child(e.parentNode, "rect[x]").attributes.x.value + 3;
			}
			if (e.attributes.width != undefined) {
				orig_save(e, "width");
				e.attributes.width.value = parseFloat(e.attributes.width.value) * ratio;
			}
		}

		if (e.childNodes == undefined) return;
		for (var i = 0, c = e.childNodes; i < c.length; i++) {
			zoom_child(c[i], x - 10, ratio);
		}
	}
	function zoom_parent(e) {
		if (e.attributes) {
			if (e.attributes.x != undefined) {
				orig_save(e, "x");
				e.attributes.x.value = 10;
			}
			if (e.attributes.width != undefined) {
				orig_save(e, "width");
				e.attributes.width.value = parseInt(svg.width.baseVal.value) - (10 * 2);
			}
		}
		if (e.childNodes == undefined) return;
		for (var i = 0, c = e.childNodes; i < c.length; i++) {
			zoom_parent(c[i]);
		}
	}
	function zoom(node) {
		var attr = find_child(node, "rect").attributes;
		var width = parseFloat(attr.width.value);
		var xmin = parseFloat(attr.x.value);
		var xmax = parseFloat(xmin + width);
		var ymin = parseFloat(attr.y.value);
		var ratio = (svg.width.baseVal.value - 2 * 10) / width;

		// XXX: Workaround for JavaScript float issues (fix me)
		var fudge = 0.0001;

		unzoombtn.classList.remove("hide");

		var el = document.getElementById("frames").children;
		for (var i = 0; i < el.length; i++) {
			var e = el[i];
			var a = find_child(e, "rect").attributes;
			var ex = parseFloat(a.x.value);
			var ew = parseFloat(a.width.value);
			var upstack;
			// Is it an ancestor
			if (0 == 0) {
				upstack = parseFloat(a.y.value) > ymin;
			} else {
				upstack = parseFloat(a.y.value) < ymin;
			}
			if (upstack) {
				// Direct ancestor
				if (ex <= xmin && (ex+ew+fudge) >= xmax) {
					e.classList.add("parent");
					zoom_parent(e);
					update_text(e);
				}
				// not in current path
				else
					e.classList.add("hide");
			}
			// Children maybe
			else {
				// no common path
				if (ex < xmin || ex + fudge >= xmax) {
					e.classList.add("hide");
				}
				else {
					zoom_child(e, xmin, ratio);
					update_text(e);
				}
			}
		}
		search();
	}
	function unzoom() {
		unzoombtn.classList.add("hide");
		var el = document.getElementById("frames").children;
		for(var i = 0; i < el.length; i++) {
			el[i].classList.remove("parent");
			el[i].classList.remove("hide");
			zoom_reset(el[i]);
			update_text(el[i]);
		}
		search();
	}
	function clearzoom() {
		unzoom();

		// remove zoom state
		var params = get_params();
		if (params.x) delete params.x;
		if (params.y) delete params.y;
		history.replaceState(null, null, parse_params(params));
	}

	// search
	function toggle_ignorecase() {
		ignorecase = !ignorecase;
		if (ignorecase) {
			ignorecaseBtn.classList.add("show");
		} else {
			ignorecaseBtn.classList.remove("show");
		}
		reset_search();
		search();
	}
	function reset_search() {
		var el = document.querySelectorAll("#frames rect");
		for (var i = 0; i < el.length; i++) {
			orig_load(el[i], "fill")
		}
		var params = get_params();
		delete params.s;
		history.replaceState(null, null, parse_params(params));
	}
	function search_prompt() {
		if (!searching) {
			var term = prompt("Enter a search term (regexp " +
			    "allowed, eg: ^ext4_)"
			    + (ignorecase ? ", ignoring case" : "")
			    + "\nPress Ctrl-i to toggle case sensitivity", "");
			if (term != null) search(term);
		} else {
			reset_search();
			searching = 0;
			currentSearchTerm = null;
			searchbtn.classList.remove("show");
			searchbtn.firstChild.nodeValue = "Search"
			matchedtxt.classList.add("hide");
			matchedtxt.firstChild.nodeValue = ""
		}
	}
	function search(term) {
		if (term) currentSearchTerm = term;

		var re = new RegExp(currentSearchTerm, ignorecase ? 'i' : '');
		var el = document.getElementById("frames").children;
		var matches = new Object();
		var maxwidth = 0;
		for (var i = 0; i < el.length; i++) {
			var e = el[i];
			var func = g_to_func(e);
			var rect = find_child(e, "rect");
			if (func == null || rect == null)
				continue;

			// Save max width. Only works as we have a root frame
			var w = parseFloat(rect.attributes.width.value);
			if (w > maxwidth)
				maxwidth = w;

			if (func.match(re)) {
				// highlight
				var x = parseFloat(rect.attributes.x.value);
				orig_save(rect, "fill");
				rect.attributes.fill.value = "rgb(230,0,230)";

				// remember matches
				if (matches[x] == undefined) {
					matches[x] = w;
				} else {
					if (w > matches[x]) {
						// overwrite with parent
						matches[x] = w;
					}
				}
				searching = 1;
			}
		}
		if (!searching)
			return;
		var params = get_params();
		params.s = currentSearchTerm;
		history.replaceState(null, null, parse_params(params));

		searchbtn.classList.add("show");
		searchbtn.firstChild.nodeValue = "Reset Search";

		// calculate percent matched, excluding vertical overlap
		var count = 0;
		var lastx = -1;
		var lastw = 0;
		var keys = Array();
		for (k in matches) {
			if (matches.hasOwnProperty(k))
				keys.push(k);
		}
		// sort the matched frames by their x location
		// ascending, then width descending
		keys.sort(function(a, b){
			return a - b;
		});
		// Step through frames saving only the biggest bottom-up frames
		// thanks to the sort order. This relies on the tree property
		// where children are always smaller than their parents.
		var fudge = 0.0001;	// JavaScript floating point
		for (var k in keys) {
			var x = parseFloat(keys[k]);
			var w = matches[keys[k]];
			if (x >= lastx + lastw - fudge) {
				count += w;
				lastx = x;
				lastw = w;
			}
		}
		// display matched percent
		matchedtxt.classList.remove("hide");
		var pct = 100 * count / maxwidth;
		if (pct != 100) pct = pct.toFixed(1)
		matchedtxt.firstChild.nodeValue = "Matched: " + pct + "%";
	}
]]>
</script>
<rect x="0.0" y="0" width="1200.0" height="326.0" fill="url(#background)"  />
<text id="title" x="600.00" y="24" >Flame Graph</text>
<text id="details" x="10.00" y="309" > </text>
<text id="unzoom" x="10.00" y="24" class="hide">Reset Zoom</text>
<text id="search" x="1090.00" y="24" >Search</text>
<text id="ignorecase" x="1174.00" y="24" >ic</text>
<text id="matched" x="1090.00" y="309" > </text>
<g id="frames">
<g >
<title>L: (9 samples, 0.78%)</title><rect x="55.1" y="197" width="9.2" height="15.0" fill="rgb(222,167,4)" rx="2" ry="2" />
<text  x="58.07" y="207.5" ></text>
</g>
<g >
<title>L:@/home/yunwei/coding/backlog/apisix/apisix/init.lua:321 (682 samples, 59.20%)</title><rect x="162.6" y="229" width="698.6" height="15.0" fill="rgb(231,13,52)" rx="2" ry="2" />
<text  x="165.62" y="239.5" >L:@/home/yunwei/coding/backlog/apisix/apisix/init.lua:321</text>
</g>
<g >
<title>L:@/home/yunwei/coding/backlog/apisix/apisix/upstream.lua:234 (2 samples, 0.17%)</title><rect x="859.1" y="213" width="2.1" height="15.0" fill="rgb(222,66,14)" rx="2" ry="2" />
<text  x="862.15" y="223.5" ></text>
</g>
<g >
<title>L: (35 samples, 3.04%)</title><rect x="19.2" y="197" width="35.9" height="15.0" fill="rgb(253,204,38)" rx="2" ry="2" />
<text  x="22.22" y="207.5" >L:</text>
</g>
<g >
<title>L: (1 samples, 0.09%)</title><rect x="17.2" y="101" width="1.0" height="15.0" fill="rgb(244,60,46)" rx="2" ry="2" />
<text  x="20.17" y="111.5" ></text>
</g>
<g >
<title>L:@/home/yunwei/coding/backlog/apisix//deps/share/lua/5.1/resty/jwt.lua:338 (43 samples, 3.73%)</title><rect x="566.2" y="149" width="44.0" height="15.0" fill="rgb(249,15,38)" rx="2" ry="2" />
<text  x="569.20" y="159.5" >L:@/..</text>
</g>
<g >
<title>L::-927432736 (64 samples, 5.56%)</title><rect x="290.7" y="101" width="65.5" height="15.0" fill="rgb(210,113,33)" rx="2" ry="2" />
<text  x="293.66" y="111.5" >L::-927..</text>
</g>
<g >
<title>L: (54 samples, 4.69%)</title><rect x="636.9" y="149" width="55.3" height="15.0" fill="rgb(225,192,31)" rx="2" ry="2" />
<text  x="639.88" y="159.5" >L:</text>
</g>
<g >
<title>L: (2 samples, 0.17%)</title><rect x="1185.9" y="229" width="2.1" height="15.0" fill="rgb(221,43,15)" rx="2" ry="2" />
<text  x="1188.90" y="239.5" ></text>
</g>
<g >
<title>L: (35 samples, 3.04%)</title><rect x="19.2" y="37" width="35.9" height="15.0" fill="rgb(207,44,38)" rx="2" ry="2" />
<text  x="22.22" y="47.5" >L:</text>
</g>
<g >
<title>openresty (1,152 samples, 100.00%)</title><rect x="10.0" y="261" width="1180.0" height="15.0" fill="rgb(229,73,49)" rx="2" ry="2" />
<text  x="13.00" y="271.5" >openresty</text>
</g>
<g >
<title>L: (2 samples, 0.17%)</title><rect x="365.4" y="133" width="2.1" height="15.0" fill="rgb(233,188,15)" rx="2" ry="2" />
<text  x="368.43" y="143.5" ></text>
</g>
<g >
<title>L:@/home/yunwei/coding/backlog/apisix//deps/share/lua/5.1/resty/jwt-validators.lu:352 (2 samples, 0.17%)</title><rect x="823.3" y="117" width="2.0" height="15.0" fill="rgb(218,12,54)" rx="2" ry="2" />
<text  x="826.30" y="127.5" ></text>
</g>
<g >
<title>L: (5 samples, 0.43%)</title><rect x="385.9" y="133" width="5.1" height="15.0" fill="rgb(246,86,8)" rx="2" ry="2" />
<text  x="388.92" y="143.5" ></text>
</g>
<g >
<title>L:=header_filter_by_lua (316 samples, 27.43%)</title><rect x="861.2" y="245" width="323.7" height="15.0" fill="rgb(220,15,51)" rx="2" ry="2" />
<text  x="864.20" y="255.5" >L:=header_filter_by_lua</text>
</g>
<g >
<title>L:@/home/yunwei/coding/backlog/apisix//deps/share/lua/5.1/resty/jwt-validators.lu:352 (6 samples, 0.52%)</title><rect x="825.3" y="133" width="6.2" height="15.0" fill="rgb(206,134,2)" rx="2" ry="2" />
<text  x="828.35" y="143.5" ></text>
</g>
<g >
<title>builtin#4 (1 samples, 0.09%)</title><rect x="1188.0" y="181" width="1.0" height="15.0" fill="rgb(233,45,7)" rx="2" ry="2" />
<text  x="1190.95" y="191.5" ></text>
</g>
<g >
<title>L:@/usr/local/openresty-debug/lualib/resty/core/regex.lua:619 (9 samples, 0.78%)</title><rect x="407.4" y="133" width="9.2" height="15.0" fill="rgb(229,147,41)" rx="2" ry="2" />
<text  x="410.43" y="143.5" ></text>
</g>
<g >
<title>L: (3 samples, 0.26%)</title><rect x="101.2" y="101" width="3.0" height="15.0" fill="rgb(229,65,2)" rx="2" ry="2" />
<text  x="104.16" y="111.5" ></text>
</g>
<g >
<title>builtin#208 (1 samples, 0.09%)</title><rect x="1183.9" y="213" width="1.0" height="15.0" fill="rgb(240,157,35)" rx="2" ry="2" />
<text  x="1186.85" y="223.5" ></text>
</g>
<g >
<title>L:@/home/yunwei/coding/backlog/apisix//deps/share/lua/5.1/resty/jwt-validators.lu:366 (14 samples, 1.22%)</title><rect x="809.0" y="133" width="14.3" height="15.0" fill="rgb(242,54,26)" rx="2" ry="2" />
<text  x="811.96" y="143.5" ></text>
</g>
<g >
<title>L:@/home/yunwei/coding/backlog/apisix/apisix/plugins/jwt-auth.lua:354 (420 samples, 36.46%)</title><rect x="428.9" y="197" width="430.2" height="15.0" fill="rgb(246,160,10)" rx="2" ry="2" />
<text  x="431.94" y="207.5" >L:@/home/yunwei/coding/backlog/apisix/apisix/plugins/jwt-a..</text>
</g>
<g >
<title>builtin#2 (1 samples, 0.09%)</title><rect x="1189.0" y="229" width="1.0" height="15.0" fill="rgb(244,161,52)" rx="2" ry="2" />
<text  x="1191.98" y="239.5" ></text>
</g>
<g >
<title>L:@/home/yunwei/coding/backlog/apisix//deps/share/lua/5.1/resty/radixtree.lua:687 (57 samples, 4.95%)</title><rect x="360.3" y="197" width="58.4" height="15.0" fill="rgb(253,13,51)" rx="2" ry="2" />
<text  x="363.31" y="207.5" >L:@/ho..</text>
</g>
<g >
<title>L:@/home/yunwei/coding/backlog/apisix/apisix/plugins/jwt-auth.lua:354 (35 samples, 3.04%)</title><rect x="19.2" y="213" width="35.9" height="15.0" fill="rgb(230,214,42)" rx="2" ry="2" />
<text  x="22.22" y="223.5" >L:@..</text>
</g>
<g >
<title>L: (35 samples, 3.04%)</title><rect x="19.2" y="101" width="35.9" height="15.0" fill="rgb(234,110,15)" rx="2" ry="2" />
<text  x="22.22" y="111.5" >L:</text>
</g>
<g >
<title>L:@/home/yunwei/coding/backlog/apisix//deps/share/lua/5.1/resty/jwt-validators.lu:139 (2 samples, 0.17%)</title><rect x="823.3" y="133" width="2.0" height="15.0" fill="rgb(240,173,14)" rx="2" ry="2" />
<text  x="826.30" y="143.5" ></text>
</g>
<g >
<title>L: (5 samples, 0.43%)</title><rect x="385.9" y="149" width="5.1" height="15.0" fill="rgb(221,77,15)" rx="2" ry="2" />
<text  x="388.92" y="159.5" ></text>
</g>
<g >
<title>builtin#6 (1 samples, 0.09%)</title><rect x="1188.0" y="229" width="1.0" height="15.0" fill="rgb(235,223,13)" rx="2" ry="2" />
<text  x="1190.95" y="239.5" ></text>
</g>
<g >
<title>L: (3 samples, 0.26%)</title><rect x="101.2" y="37" width="3.0" height="15.0" fill="rgb(231,41,26)" rx="2" ry="2" />
<text  x="104.16" y="47.5" ></text>
</g>
<g >
<title>L: (2 samples, 0.17%)</title><rect x="365.4" y="149" width="2.1" height="15.0" fill="rgb(222,38,5)" rx="2" ry="2" />
<text  x="368.43" y="159.5" ></text>
</g>
<g >
<title>L: (12 samples, 1.04%)</title><rect x="104.2" y="213" width="12.3" height="15.0" fill="rgb(238,181,45)" rx="2" ry="2" />
<text  x="107.24" y="223.5" ></text>
</g>
<g >
<title>builtin#89 (4 samples, 0.35%)</title><rect x="606.1" y="117" width="4.1" height="15.0" fill="rgb(241,121,23)" rx="2" ry="2" />
<text  x="609.15" y="127.5" ></text>
</g>
<g >
<title>builtin#17 (61 samples, 5.30%)</title><rect x="1121.4" y="181" width="62.5" height="15.0" fill="rgb(227,125,38)" rx="2" ry="2" />
<text  x="1124.37" y="191.5" >builti..</text>
</g>
<g >
<title>builtin#13 (1 samples, 0.09%)</title><rect x="18.2" y="197" width="1.0" height="15.0" fill="rgb(251,156,24)" rx="2" ry="2" />
<text  x="21.19" y="207.5" ></text>
</g>
<g >
<title>L: (1 samples, 0.09%)</title><rect x="17.2" y="37" width="1.0" height="15.0" fill="rgb(215,1,9)" rx="2" ry="2" />
<text  x="20.17" y="47.5" ></text>
</g>
<g >
<title>L: (64 samples, 5.56%)</title><rect x="290.7" y="117" width="65.5" height="15.0" fill="rgb(253,26,14)" rx="2" ry="2" />
<text  x="293.66" y="127.5" >L:</text>
</g>
<g >
<title>L: (2 samples, 0.17%)</title><rect x="367.5" y="117" width="2.0" height="15.0" fill="rgb(248,70,45)" rx="2" ry="2" />
<text  x="370.48" y="127.5" ></text>
</g>
<g >
<title>builtin#63 (64 samples, 5.56%)</title><rect x="290.7" y="165" width="65.5" height="15.0" fill="rgb(245,43,9)" rx="2" ry="2" />
<text  x="293.66" y="175.5" >builtin..</text>
</g>
<g >
<title>L: (72 samples, 6.25%)</title><rect x="216.9" y="165" width="73.8" height="15.0" fill="rgb(238,141,45)" rx="2" ry="2" />
<text  x="219.91" y="175.5" >L:</text>
</g>
<g >
<title>L:@/home/yunwei/coding/backlog/apisix//deps/share/lua/5.1/resty/radixtree.lua:629 (48 samples, 4.17%)</title><rect x="369.5" y="181" width="49.2" height="15.0" fill="rgb(253,66,35)" rx="2" ry="2" />
<text  x="372.53" y="191.5" >L:@/..</text>
</g>
<g >
<title>L: (1 samples, 0.09%)</title><rect x="1188.0" y="165" width="1.0" height="15.0" fill="rgb(231,142,2)" rx="2" ry="2" />
<text  x="1190.95" y="175.5" ></text>
</g>
<g >
<title>L: (2 samples, 0.17%)</title><rect x="365.4" y="165" width="2.1" height="15.0" fill="rgb(228,140,34)" rx="2" ry="2" />
<text  x="368.43" y="175.5" ></text>
</g>
<g >
<title>L:@/home/yunwei/coding/backlog/apisix/apisix/plugin.lua:721 (166 samples, 14.41%)</title><rect x="920.6" y="213" width="170.0" height="15.0" fill="rgb(220,168,33)" rx="2" ry="2" />
<text  x="923.61" y="223.5" >L:@/home/yunwei/coding..</text>
</g>
<g >
<title>L::1026 (4 samples, 0.35%)</title><rect x="391.0" y="165" width="4.1" height="15.0" fill="rgb(227,113,52)" rx="2" ry="2" />
<text  x="394.04" y="175.5" ></text>
</g>
<g >
<title>L: (3 samples, 0.26%)</title><rect x="101.2" y="117" width="3.0" height="15.0" fill="rgb(225,177,40)" rx="2" ry="2" />
<text  x="104.16" y="127.5" ></text>
</g>
<g >
<title>builtin#21 (155 samples, 13.45%)</title><rect x="451.5" y="165" width="158.7" height="15.0" fill="rgb(207,185,21)" rx="2" ry="2" />
<text  x="454.48" y="175.5" >builtin#21</text>
</g>
<g >
<title>C:json_protect_conversion (47 samples, 4.08%)</title><rect x="740.3" y="149" width="48.2" height="15.0" fill="rgb(220,104,38)" rx="2" ry="2" />
<text  x="743.33" y="159.5" >C:js..</text>
</g>
<g >
<title>L:@/home/yunwei/coding/backlog/apisix//deps/share/lua/5.1/resty/jwt.lua:704 (34 samples, 2.95%)</title><rect x="788.5" y="149" width="34.8" height="15.0" fill="rgb(242,124,41)" rx="2" ry="2" />
<text  x="791.47" y="159.5" >L:..</text>
</g>
<g >
<title>L: (35 samples, 3.04%)</title><rect x="64.3" y="197" width="35.8" height="15.0" fill="rgb(234,52,13)" rx="2" ry="2" />
<text  x="67.29" y="207.5" >L:</text>
</g>
<g >
<title>L:@/home/yunwei/coding/backlog/apisix//deps/share/lua/5.1/resty/jwt.lua:816 (243 samples, 21.09%)</title><rect x="610.2" y="181" width="248.9" height="15.0" fill="rgb(243,147,12)" rx="2" ry="2" />
<text  x="613.24" y="191.5" >L:@/home/yunwei/coding/backlog/ap..</text>
</g>
<g >
<title>C:json_protect_conversion (38 samples, 3.30%)</title><rect x="527.3" y="117" width="38.9" height="15.0" fill="rgb(248,199,21)" rx="2" ry="2" />
<text  x="530.27" y="127.5" >C:j..</text>
</g>
<g >
<title>builtin#255 (3 samples, 0.26%)</title><rect x="1185.9" y="245" width="3.1" height="15.0" fill="rgb(236,114,32)" rx="2" ry="2" />
<text  x="1188.90" y="255.5" ></text>
</g>
<g >
<title>L:@/usr/local/openresty-debug/lualib/resty/core/var.lua:68 (91 samples, 7.90%)</title><rect x="1090.6" y="213" width="93.3" height="15.0" fill="rgb(240,214,11)" rx="2" ry="2" />
<text  x="1093.64" y="223.5" >L:@/usr/loc..</text>
</g>
<g >
<title>L:@/home/yunwei/coding/backlog/apisix/apisix/core/utils.lua:297 (47 samples, 4.08%)</title><rect x="1039.4" y="149" width="48.2" height="15.0" fill="rgb(217,80,47)" rx="2" ry="2" />
<text  x="1042.43" y="159.5" >L:@/..</text>
</g>
<g >
<title>L:@/home/yunwei/coding/backlog/apisix//deps/share/lua/5.1/resty/radixtree.lua:491 (9 samples, 0.78%)</title><rect x="407.4" y="149" width="9.2" height="15.0" fill="rgb(211,201,13)" rx="2" ry="2" />
<text  x="410.43" y="159.5" ></text>
</g>
<g >
<title>L:@/usr/local/openresty-debug/lualib/resty/core/regex.lua:513 (1 samples, 0.09%)</title><rect x="415.6" y="117" width="1.0" height="15.0" fill="rgb(210,194,27)" rx="2" ry="2" />
<text  x="418.62" y="127.5" ></text>
</g>
<g >
<title>L: (1 samples, 0.09%)</title><rect x="17.2" y="117" width="1.0" height="15.0" fill="rgb(218,136,20)" rx="2" ry="2" />
<text  x="20.17" y="127.5" ></text>
</g>
<g >
<title>L:@/home/yunwei/coding/backlog/apisix/apisix/plugin.lua:516 (9 samples, 0.78%)</title><rect x="419.7" y="213" width="9.2" height="15.0" fill="rgb(236,79,28)" rx="2" ry="2" />
<text  x="422.72" y="223.5" ></text>
</g>
<g >
<title>L:=access_by_lua(nginx.conf:268) (1 samples, 0.09%)</title><rect x="1184.9" y="229" width="1.0" height="15.0" fill="rgb(235,24,6)" rx="2" ry="2" />
<text  x="1187.88" y="239.5" ></text>
</g>
<g >
<title>L: (1 samples, 0.09%)</title><rect x="1188.0" y="213" width="1.0" height="15.0" fill="rgb(236,111,48)" rx="2" ry="2" />
<text  x="1190.95" y="223.5" ></text>
</g>
<g >
<title>L:@/home/yunwei/coding/backlog/apisix//deps/share/lua/5.1/resty/jwt.lua:772 (136 samples, 11.81%)</title><rect x="692.2" y="165" width="139.3" height="15.0" fill="rgb(213,105,22)" rx="2" ry="2" />
<text  x="695.19" y="175.5" >L:@/home/yunwei/c..</text>
</g>
<g >
<title>builtin#21 (27 samples, 2.34%)</title><rect x="831.5" y="165" width="27.6" height="15.0" fill="rgb(243,171,51)" rx="2" ry="2" />
<text  x="834.49" y="175.5" >b..</text>
</g>
<g >
<title>builtin#63 (72 samples, 6.25%)</title><rect x="216.9" y="149" width="73.8" height="15.0" fill="rgb(218,135,33)" rx="2" ry="2" />
<text  x="219.91" y="159.5" >builtin#63</text>
</g>
<g >
<title>builtin#19 (1 samples, 0.09%)</title><rect x="1089.6" y="149" width="1.0" height="15.0" fill="rgb(205,211,15)" rx="2" ry="2" />
<text  x="1092.62" y="159.5" ></text>
</g>
<g >
<title>L: (54 samples, 4.69%)</title><rect x="636.9" y="165" width="55.3" height="15.0" fill="rgb(215,176,26)" rx="2" ry="2" />
<text  x="639.88" y="175.5" >L:</text>
</g>
<g >
<title>L:@/usr/local/openresty-debug/lualib/resty/core/regex.lua:950 (158 samples, 13.72%)</title><rect x="928.8" y="165" width="161.8" height="15.0" fill="rgb(229,71,36)" rx="2" ry="2" />
<text  x="931.80" y="175.5" >L:@/usr/local/openre..</text>
</g>
<g >
<title>L:@/home/yunwei/coding/backlog/apisix//deps/share/lua/5.1/resty/jwt.lua:605 (155 samples, 13.45%)</title><rect x="451.5" y="181" width="158.7" height="15.0" fill="rgb(232,168,21)" rx="2" ry="2" />
<text  x="454.48" y="191.5" >L:@/home/yunwei/codi..</text>
</g>
<g >
<title>L:@/home/yunwei/coding/backlog/apisix/apisix/http/route.lua:104 (61 samples, 5.30%)</title><rect x="356.2" y="213" width="62.5" height="15.0" fill="rgb(229,209,3)" rx="2" ry="2" />
<text  x="359.22" y="223.5" >L:@/ho..</text>
</g>
<g >
<title>L: (136 samples, 11.81%)</title><rect x="216.9" y="197" width="139.3" height="15.0" fill="rgb(249,136,15)" rx="2" ry="2" />
<text  x="219.91" y="207.5" >L:</text>
</g>
<g >
<title>builtin#2 (3 samples, 0.26%)</title><rect x="101.2" y="85" width="3.0" height="15.0" fill="rgb(235,189,39)" rx="2" ry="2" />
<text  x="104.16" y="95.5" ></text>
</g>
<g >
<title>L: (72 samples, 6.25%)</title><rect x="216.9" y="133" width="73.8" height="15.0" fill="rgb(215,58,38)" rx="2" ry="2" />
<text  x="219.91" y="143.5" >L:</text>
</g>
<g >
<title>L:@/home/yunwei/coding/backlog/apisix//deps/share/lua/5.1/resty/radixtree.lua:610 (23 samples, 2.00%)</title><rect x="395.1" y="165" width="23.6" height="15.0" fill="rgb(236,191,5)" rx="2" ry="2" />
<text  x="398.14" y="175.5" >L..</text>
</g>
<g >
<title>all (1,152 samples, 100%)</title><rect x="10.0" y="277" width="1180.0" height="15.0" fill="rgb(233,66,35)" rx="2" ry="2" />
<text  x="13.00" y="287.5" ></text>
</g>
<g >
<title>L::1025 (2 samples, 0.17%)</title><rect x="365.4" y="181" width="2.1" height="15.0" fill="rgb(239,166,44)" rx="2" ry="2" />
<text  x="368.43" y="191.5" ></text>
</g>
<g >
<title>L: (3 samples, 0.26%)</title><rect x="101.2" y="197" width="3.0" height="15.0" fill="rgb(237,148,24)" rx="2" ry="2" />
<text  x="104.16" y="207.5" ></text>
</g>
<g >
<title>L:@/home/yunwei/coding/backlog/apisix//deps/share/lua/5.1/resty/jwt.lua:542 (23 samples, 2.00%)</title><rect x="835.6" y="149" width="23.5" height="15.0" fill="rgb(223,11,20)" rx="2" ry="2" />
<text  x="838.59" y="159.5" >L..</text>
</g>
<g >
<title>L:@/home/yunwei/coding/backlog/apisix//deps/share/lua/5.1/resty/jwt-validators.lu:382 (2 samples, 0.17%)</title><rect x="806.9" y="117" width="2.1" height="15.0" fill="rgb(213,80,28)" rx="2" ry="2" />
<text  x="809.91" y="127.5" ></text>
</g>
<g >
<title>L: (1 samples, 0.09%)</title><rect x="17.2" y="197" width="1.0" height="15.0" fill="rgb(242,64,3)" rx="2" ry="2" />
<text  x="20.17" y="207.5" ></text>
</g>
<g >
<title>L: (104 samples, 9.03%)</title><rect x="10.0" y="245" width="106.5" height="15.0" fill="rgb(234,224,11)" rx="2" ry="2" />
<text  x="13.00" y="255.5" >L:</text>
</g>
<g >
<title>L: (64 samples, 5.56%)</title><rect x="290.7" y="149" width="65.5" height="15.0" fill="rgb(205,8,7)" rx="2" ry="2" />
<text  x="293.66" y="159.5" >L:</text>
</g>
<g >
<title>L:@/home/yunwei/coding/backlog/apisix/apisix/core/utils.lua:306 (158 samples, 13.72%)</title><rect x="928.8" y="181" width="161.8" height="15.0" fill="rgb(242,85,10)" rx="2" ry="2" />
<text  x="931.80" y="191.5" >L:@/home/yunwei/codi..</text>
</g>
<g >
<title>L: (1 samples, 0.09%)</title><rect x="99.1" y="117" width="1.0" height="15.0" fill="rgb(231,189,17)" rx="2" ry="2" />
<text  x="102.11" y="127.5" ></text>
</g>
<g >
<title>L:@/home/yunwei/coding/backlog/apisix/apisix/plugin.lua:358 (1 samples, 0.09%)</title><rect x="418.7" y="213" width="1.0" height="15.0" fill="rgb(242,189,28)" rx="2" ry="2" />
<text  x="421.70" y="223.5" ></text>
</g>
<g >
<title>L:@/home/yunwei/coding/backlog/apisix//deps/share/lua/5.1/resty/radixtree.lua:687 (1 samples, 0.09%)</title><rect x="18.2" y="149" width="1.0" height="15.0" fill="rgb(249,193,24)" rx="2" ry="2" />
<text  x="21.19" y="159.5" ></text>
</g>
<g >
<title>L: (1 samples, 0.09%)</title><rect x="18.2" y="165" width="1.0" height="15.0" fill="rgb(238,210,13)" rx="2" ry="2" />
<text  x="21.19" y="175.5" ></text>
</g>
<g >
<title>L: (35 samples, 3.04%)</title><rect x="64.3" y="181" width="35.8" height="15.0" fill="rgb(249,185,30)" rx="2" ry="2" />
<text  x="67.29" y="191.5" >L:</text>
</g>
<g >
<title>L: (3 samples, 0.26%)</title><rect x="101.2" y="53" width="3.0" height="15.0" fill="rgb(248,206,28)" rx="2" ry="2" />
<text  x="104.16" y="63.5" ></text>
</g>
<g >
<title>L:@/home/yunwei/coding/backlog/apisix//deps/share/lua/5.1/resty/jwt-validators.lu:33 (3 samples, 0.26%)</title><rect x="805.9" y="133" width="3.1" height="15.0" fill="rgb(243,127,11)" rx="2" ry="2" />
<text  x="808.89" y="143.5" ></text>
</g>
<g >
<title>L: (2 samples, 0.17%)</title><rect x="367.5" y="165" width="2.0" height="15.0" fill="rgb(228,60,30)" rx="2" ry="2" />
<text  x="370.48" y="175.5" ></text>
</g>
<g >
<title>builtin#9 (12 samples, 1.04%)</title><rect x="104.2" y="229" width="12.3" height="15.0" fill="rgb(253,195,42)" rx="2" ry="2" />
<text  x="107.24" y="239.5" ></text>
</g>
<g >
<title>L: (1 samples, 0.09%)</title><rect x="17.2" y="149" width="1.0" height="15.0" fill="rgb(228,76,45)" rx="2" ry="2" />
<text  x="20.17" y="159.5" ></text>
</g>
<g >
<title>L:@/home/yunwei/coding/backlog/apisix/apisix/plugins/jwt-auth.lua:354 (35 samples, 3.04%)</title><rect x="19.2" y="117" width="35.9" height="15.0" fill="rgb(239,220,52)" rx="2" ry="2" />
<text  x="22.22" y="127.5" >L:@..</text>
</g>
<g >
<title>C:json_encode (1 samples, 0.09%)</title><rect x="787.4" y="133" width="1.1" height="15.0" fill="rgb(237,141,10)" rx="2" ry="2" />
<text  x="790.45" y="143.5" ></text>
</g>
<g >
<title>L: (4 samples, 0.35%)</title><rect x="15.1" y="213" width="4.1" height="15.0" fill="rgb(214,226,9)" rx="2" ry="2" />
<text  x="18.12" y="223.5" ></text>
</g>
<g >
<title>L:@/home/yunwei/coding/backlog/apisix/apisix/plugin.lua:721 (420 samples, 36.46%)</title><rect x="428.9" y="213" width="430.2" height="15.0" fill="rgb(220,199,23)" rx="2" ry="2" />
<text  x="431.94" y="223.5" >L:@/home/yunwei/coding/backlog/apisix/apisix/plugin.lua:721</text>
</g>
<g >
<title>L: (3 samples, 0.26%)</title><rect x="101.2" y="149" width="3.0" height="15.0" fill="rgb(216,223,25)" rx="2" ry="2" />
<text  x="104.16" y="159.5" ></text>
</g>
<g >
<title>L: (1 samples, 0.09%)</title><rect x="99.1" y="133" width="1.0" height="15.0" fill="rgb(227,11,29)" rx="2" ry="2" />
<text  x="102.11" y="143.5" ></text>
</g>
<g >
<title>L:@/home/yunwei/coding/backlog/apisix/apisix/plugins/jwt-auth.lua:354 (35 samples, 3.04%)</title><rect x="19.2" y="69" width="35.9" height="15.0" fill="rgb(210,57,43)" rx="2" ry="2" />
<text  x="22.22" y="79.5" >L:@..</text>
</g>
<g >
<title>L: (4 samples, 0.35%)</title><rect x="391.0" y="149" width="4.1" height="15.0" fill="rgb(244,165,9)" rx="2" ry="2" />
<text  x="394.04" y="159.5" ></text>
</g>
<g >
<title>L:@/home/yunwei/coding/backlog/apisix//deps/share/lua/5.1/resty/jwt.lua:94 (43 samples, 3.73%)</title><rect x="566.2" y="133" width="44.0" height="15.0" fill="rgb(225,56,30)" rx="2" ry="2" />
<text  x="569.20" y="143.5" >L:@/..</text>
</g>
<g >
<title>L: (1 samples, 0.09%)</title><rect x="17.2" y="53" width="1.0" height="15.0" fill="rgb(231,216,8)" rx="2" ry="2" />
<text  x="20.17" y="63.5" ></text>
</g>
<g >
<title>L: (5 samples, 0.43%)</title><rect x="95.0" y="149" width="5.1" height="15.0" fill="rgb(235,38,43)" rx="2" ry="2" />
<text  x="98.02" y="159.5" ></text>
</g>
<g >
<title>L: (1 samples, 0.09%)</title><rect x="457.6" y="133" width="1.0" height="15.0" fill="rgb(222,221,37)" rx="2" ry="2" />
<text  x="460.62" y="143.5" ></text>
</g>
<g >
<title>L: (72 samples, 6.25%)</title><rect x="216.9" y="117" width="73.8" height="15.0" fill="rgb(209,34,3)" rx="2" ry="2" />
<text  x="219.91" y="127.5" >L:</text>
</g>
<g >
<title>L: (52 samples, 4.51%)</title><rect x="11.0" y="229" width="53.3" height="15.0" fill="rgb(243,61,15)" rx="2" ry="2" />
<text  x="14.02" y="239.5" >L:</text>
</g>
<g >
<title>L: (4 samples, 0.35%)</title><rect x="391.0" y="133" width="4.1" height="15.0" fill="rgb(241,197,38)" rx="2" ry="2" />
<text  x="394.04" y="143.5" ></text>
</g>
<g >
<title>builtin#4 (9 samples, 0.78%)</title><rect x="55.1" y="213" width="9.2" height="15.0" fill="rgb(244,217,28)" rx="2" ry="2" />
<text  x="58.07" y="223.5" ></text>
</g>
<g >
<title>L: (1 samples, 0.09%)</title><rect x="17.2" y="69" width="1.0" height="15.0" fill="rgb(254,140,50)" rx="2" ry="2" />
<text  x="20.17" y="79.5" ></text>
</g>
<g >
<title>builtin#10 (35 samples, 3.04%)</title><rect x="64.3" y="213" width="35.8" height="15.0" fill="rgb(222,113,3)" rx="2" ry="2" />
<text  x="67.29" y="223.5" >bui..</text>
</g>
<g >
<title>L: (136 samples, 11.81%)</title><rect x="216.9" y="181" width="139.3" height="15.0" fill="rgb(217,145,21)" rx="2" ry="2" />
<text  x="219.91" y="191.5" >L:</text>
</g>
<g >
<title>L: (1 samples, 0.09%)</title><rect x="100.1" y="213" width="1.1" height="15.0" fill="rgb(242,209,8)" rx="2" ry="2" />
<text  x="103.14" y="223.5" ></text>
</g>
<g >
<title>[Missed User Stack] (1 samples, 0.09%)</title><rect x="1184.9" y="245" width="1.0" height="15.0" fill="rgb(242,80,24)" rx="2" ry="2" />
<text  x="1187.88" y="255.5" ></text>
</g>
<g >
<title>L: (1 samples, 0.09%)</title><rect x="17.2" y="133" width="1.0" height="15.0" fill="rgb(234,50,41)" rx="2" ry="2" />
<text  x="20.17" y="143.5" ></text>
</g>
<g >
<title>L: (3 samples, 0.26%)</title><rect x="101.2" y="69" width="3.0" height="15.0" fill="rgb(233,164,50)" rx="2" ry="2" />
<text  x="104.16" y="79.5" ></text>
</g>
<g >
<title>L::1025 (5 samples, 0.43%)</title><rect x="385.9" y="165" width="5.1" height="15.0" fill="rgb(207,53,23)" rx="2" ry="2" />
<text  x="388.92" y="175.5" ></text>
</g>
<g >
<title>L:@/home/yunwei/coding/backlog/apisix/apisix/core/response.lua:135 (10 samples, 0.87%)</title><rect x="910.4" y="213" width="10.2" height="15.0" fill="rgb(207,9,20)" rx="2" ry="2" />
<text  x="913.36" y="223.5" ></text>
</g>
<g >
<title>L:@/usr/local/openresty-debug/lualib/resty/lock.lua:57 (4 samples, 0.35%)</title><rect x="606.1" y="101" width="4.1" height="15.0" fill="rgb(245,194,46)" rx="2" ry="2" />
<text  x="609.15" y="111.5" ></text>
</g>
<g >
<title>L:@/home/yunwei/coding/backlog/apisix/apisix/core/response.lua:100 (7 samples, 0.61%)</title><rect x="913.4" y="197" width="7.2" height="15.0" fill="rgb(250,221,34)" rx="2" ry="2" />
<text  x="916.44" y="207.5" ></text>
</g>
<g >
<title>L: (35 samples, 3.04%)</title><rect x="19.2" y="53" width="35.9" height="15.0" fill="rgb(237,197,49)" rx="2" ry="2" />
<text  x="22.22" y="63.5" >L:</text>
</g>
<g >
<title>builtin#255 (8 samples, 0.69%)</title><rect x="56.1" y="165" width="8.2" height="15.0" fill="rgb(224,4,12)" rx="2" ry="2" />
<text  x="59.09" y="175.5" ></text>
</g>
<g >
<title>L: (1 samples, 0.09%)</title><rect x="17.2" y="181" width="1.0" height="15.0" fill="rgb(244,95,1)" rx="2" ry="2" />
<text  x="20.17" y="191.5" ></text>
</g>
<g >
<title>L: (64 samples, 5.56%)</title><rect x="290.7" y="133" width="65.5" height="15.0" fill="rgb(209,18,24)" rx="2" ry="2" />
<text  x="293.66" y="143.5" >L:</text>
</g>
<g >
<title>L:=access_by_lua(nginx.conf:268) (727 samples, 63.11%)</title><rect x="116.5" y="245" width="744.7" height="15.0" fill="rgb(209,76,27)" rx="2" ry="2" />
<text  x="119.53" y="255.5" >L:=access_by_lua(nginx.conf:268)</text>
</g>
<g >
<title>L: (8 samples, 0.69%)</title><rect x="56.1" y="181" width="8.2" height="15.0" fill="rgb(227,167,16)" rx="2" ry="2" />
<text  x="59.09" y="191.5" ></text>
</g>
<g >
<title>L: (1 samples, 0.09%)</title><rect x="1188.0" y="197" width="1.0" height="15.0" fill="rgb(208,7,34)" rx="2" ry="2" />
<text  x="1190.95" y="207.5" ></text>
</g>
<g >
<title>L: (35 samples, 3.04%)</title><rect x="19.2" y="181" width="35.9" height="15.0" fill="rgb(245,101,29)" rx="2" ry="2" />
<text  x="22.22" y="191.5" >L:</text>
</g>
<g >
<title>L: (61 samples, 5.30%)</title><rect x="1121.4" y="165" width="62.5" height="15.0" fill="rgb(216,212,25)" rx="2" ry="2" />
<text  x="1124.37" y="175.5" >L:</text>
</g>
<g >
<title>L: (1 samples, 0.09%)</title><rect x="1189.0" y="213" width="1.0" height="15.0" fill="rgb(207,226,13)" rx="2" ry="2" />
<text  x="1191.98" y="223.5" ></text>
</g>
<g >
<title>L: (6 samples, 0.52%)</title><rect x="94.0" y="165" width="6.1" height="15.0" fill="rgb(250,40,34)" rx="2" ry="2" />
<text  x="96.99" y="175.5" ></text>
</g>
<g >
<title>L: (1 samples, 0.09%)</title><rect x="18.2" y="181" width="1.0" height="15.0" fill="rgb(211,34,18)" rx="2" ry="2" />
<text  x="21.19" y="191.5" ></text>
</g>
<g >
<title>L::1026 (2 samples, 0.17%)</title><rect x="367.5" y="181" width="2.0" height="15.0" fill="rgb(242,146,33)" rx="2" ry="2" />
<text  x="370.48" y="191.5" ></text>
</g>
<g >
<title>L: (35 samples, 3.04%)</title><rect x="19.2" y="133" width="35.9" height="15.0" fill="rgb(228,73,43)" rx="2" ry="2" />
<text  x="22.22" y="143.5" >L:</text>
</g>
<g >
<title>L:@/home/yunwei/coding/backlog/apisix/apisix/init.lua:596 (307 samples, 26.65%)</title><rect x="870.4" y="229" width="314.5" height="15.0" fill="rgb(247,158,43)" rx="2" ry="2" />
<text  x="873.42" y="239.5" >L:@/home/yunwei/coding/backlog/apisix/apis..</text>
</g>
<g >
<title>L: (35 samples, 3.04%)</title><rect x="19.2" y="85" width="35.9" height="15.0" fill="rgb(243,5,0)" rx="2" ry="2" />
<text  x="22.22" y="95.5" >L:</text>
</g>
<g >
<title>L:@/home/yunwei/coding/backlog/apisix/apisix/plugins/jwt-auth.lua:354 (35 samples, 3.04%)</title><rect x="19.2" y="165" width="35.9" height="15.0" fill="rgb(206,45,22)" rx="2" ry="2" />
<text  x="22.22" y="175.5" >L:@..</text>
</g>
<g >
<title>L: (2 samples, 0.17%)</title><rect x="367.5" y="133" width="2.0" height="15.0" fill="rgb(218,108,39)" rx="2" ry="2" />
<text  x="370.48" y="143.5" ></text>
</g>
<g >
<title>L:@/usr/local/openresty-debug/lualib/resty/core/regex.lua:513 (2 samples, 0.17%)</title><rect x="1087.6" y="149" width="2.0" height="15.0" fill="rgb(244,11,17)" rx="2" ry="2" />
<text  x="1090.57" y="159.5" ></text>
</g>
<g >
<title>L: (1 samples, 0.09%)</title><rect x="99.1" y="101" width="1.0" height="15.0" fill="rgb(213,179,51)" rx="2" ry="2" />
<text  x="102.11" y="111.5" ></text>
</g>
<g >
<title>L:@/home/yunwei/coding/backlog/apisix//deps/share/lua/5.1/resty/jwt.lua:356 (22 samples, 1.91%)</title><rect x="836.6" y="133" width="22.5" height="15.0" fill="rgb(210,50,23)" rx="2" ry="2" />
<text  x="839.61" y="143.5" >L..</text>
</g>
<g >
<title>L:@/home/yunwei/coding/backlog/apisix//deps/share/lua/5.1/resty/hmac.lua:62 (1 samples, 0.09%)</title><rect x="787.4" y="117" width="1.1" height="15.0" fill="rgb(225,17,35)" rx="2" ry="2" />
<text  x="790.45" y="127.5" ></text>
</g>
<g >
<title>L: (2 samples, 0.17%)</title><rect x="367.5" y="149" width="2.0" height="15.0" fill="rgb(218,146,39)" rx="2" ry="2" />
<text  x="370.48" y="159.5" ></text>
</g>
<g >
<title>L:@/home/yunwei/coding/backlog/apisix//deps/share/lua/5.1/resty/radixtree.lua:524 (2 samples, 0.17%)</title><rect x="416.6" y="149" width="2.1" height="15.0" fill="rgb(231,12,31)" rx="2" ry="2" />
<text  x="419.65" y="159.5" ></text>
</g>
<g >
<title>L:@/home/yunwei/coding/backlog/apisix//deps/share/lua/5.1/resty/jwt.lua:367 (105 samples, 9.11%)</title><rect x="458.6" y="133" width="107.6" height="15.0" fill="rgb(240,60,16)" rx="2" ry="2" />
<text  x="461.65" y="143.5" >L:@/home/yunw..</text>
</g>
<g >
<title>L::-670016752 (62 samples, 5.38%)</title><rect x="1120.3" y="197" width="63.6" height="15.0" fill="rgb(245,116,36)" rx="2" ry="2" />
<text  x="1123.35" y="207.5" >L::-67..</text>
</g>
<g >
<title>builtin#2 (3 samples, 0.26%)</title><rect x="101.2" y="133" width="3.0" height="15.0" fill="rgb(247,166,1)" rx="2" ry="2" />
<text  x="104.16" y="143.5" ></text>
</g>
<g >
<title>L: (3 samples, 0.26%)</title><rect x="101.2" y="213" width="3.0" height="15.0" fill="rgb(219,85,45)" rx="2" ry="2" />
<text  x="104.16" y="223.5" ></text>
</g>
<g >
<title>builtin#7 (1 samples, 0.09%)</title><rect x="1189.0" y="245" width="1.0" height="15.0" fill="rgb(235,160,49)" rx="2" ry="2" />
<text  x="1191.98" y="255.5" ></text>
</g>
<g >
<title>L:@/home/yunwei/coding/backlog/apisix/apisix/plugins/response-rewrite.lua:213 (159 samples, 13.80%)</title><rect x="927.8" y="197" width="162.8" height="15.0" fill="rgb(236,51,15)" rx="2" ry="2" />
<text  x="930.78" y="207.5" >L:@/home/yunwei/codin..</text>
</g>
<g >
<title>L:@/usr/local/openresty-debug/lualib/resty/lock.lua:57 (1 samples, 0.09%)</title><rect x="1088.6" y="133" width="1.0" height="15.0" fill="rgb(225,92,40)" rx="2" ry="2" />
<text  x="1091.59" y="143.5" ></text>
</g>
<g >
<title>builtin#21 (8 samples, 0.69%)</title><rect x="823.3" y="149" width="8.2" height="15.0" fill="rgb(234,172,40)" rx="2" ry="2" />
<text  x="826.30" y="159.5" ></text>
</g>
<g >
<title>L: (35 samples, 3.04%)</title><rect x="19.2" y="149" width="35.9" height="15.0" fill="rgb(207,98,48)" rx="2" ry="2" />
<text  x="22.22" y="159.5" >L:</text>
</g>
<g >
<title>L: (3 samples, 0.26%)</title><rect x="101.2" y="165" width="3.0" height="15.0" fill="rgb(215,90,27)" rx="2" ry="2" />
<text  x="104.16" y="175.5" ></text>
</g>
<g >
<title>builtin#108 (1 samples, 0.09%)</title><rect x="100.1" y="229" width="1.1" height="15.0" fill="rgb(249,163,49)" rx="2" ry="2" />
<text  x="103.14" y="239.5" ></text>
</g>
<g >
<title>L: (1 samples, 0.09%)</title><rect x="17.2" y="85" width="1.0" height="15.0" fill="rgb(229,195,30)" rx="2" ry="2" />
<text  x="20.17" y="95.5" ></text>
</g>
<g >
<title>L:@/home/yunwei/coding/backlog/apisix//deps/share/lua/5.1/resty/jwt.lua:313 (106 samples, 9.20%)</title><rect x="457.6" y="149" width="108.6" height="15.0" fill="rgb(233,14,12)" rx="2" ry="2" />
<text  x="460.62" y="159.5" >L:@/home/yunw..</text>
</g>
<g >
<title>L: (136 samples, 11.81%)</title><rect x="216.9" y="213" width="139.3" height="15.0" fill="rgb(240,196,10)" rx="2" ry="2" />
<text  x="219.91" y="223.5" >L:</text>
</g>
<g >
<title>L: (2 samples, 0.17%)</title><rect x="365.4" y="117" width="2.1" height="15.0" fill="rgb(220,210,54)" rx="2" ry="2" />
<text  x="368.43" y="127.5" ></text>
</g>
<g >
<title>L: (1 samples, 0.09%)</title><rect x="17.2" y="165" width="1.0" height="15.0" fill="rgb(227,214,9)" rx="2" ry="2" />
<text  x="20.17" y="175.5" ></text>
</g>
<g >
<title>L:@/home/yunwei/coding/backlog/apisix/apisix/plugins/jwt-auth.lua:354 (35 samples, 3.04%)</title><rect x="64.3" y="229" width="35.8" height="15.0" fill="rgb(212,220,38)" rx="2" ry="2" />
<text  x="67.29" y="239.5" >L:@..</text>
</g>
<g >
<title>builtin#2 (3 samples, 0.26%)</title><rect x="101.2" y="181" width="3.0" height="15.0" fill="rgb(238,78,42)" rx="2" ry="2" />
<text  x="104.16" y="191.5" ></text>
</g>
<g >
<title>builtin#2 (3 samples, 0.26%)</title><rect x="101.2" y="229" width="3.0" height="15.0" fill="rgb(232,88,48)" rx="2" ry="2" />
<text  x="104.16" y="239.5" ></text>
</g>
</g>
</svg>
